Simulation
nRows=23
nColumns=15
endheader
time  TH_x TH_y TH_z SC_y  SC_z  SC_x  AC_y  AC_z  AC_x  GH_y  GH_z  GH_yy  EL_x  PS_y
5.382082397003745  0.000000  0.000000  0.000000  -32.48905189263941  11.715121451696554  18.573227967089917  53.939500531437645  17.488492292778375  12.663584115254622  -1.3819946401522936  61.94572001347118  3.62168381505601  13.464425712748024  120.000000
5.422247191011236  0.000000  0.000000  0.000000  -32.45832608644708  11.605303545516035  18.58906916248512  53.95382182966318  17.426741553167556  12.40361468452108  -1.1972574283699189  61.98745194718735  3.327627776064796  13.485554009606119  120.000000
5.4624119850187265  0.000000  0.000000  0.000000  -32.302346946350404  11.474058662338694  18.463308266596638  53.95407694134625  17.350304476148445  12.056563951346032  -0.9840920520764821  61.76835322227649  3.117398476241638  13.427032094502936  120.000000
5.502576779026217  0.000000  0.000000  0.000000  -32.02213052681168  11.32105911131832  18.189618877186284  53.94571903379029  17.255898040898018  11.623454247555852  -0.7459459573656543  61.271781280600855  2.9803432381156756  13.304647244630617  120.000000
5.542741573033708  0.000000  0.000000  0.000000  -31.62322456464208  11.145024546631701  17.764497993500033  53.93526112684032  17.13943348981167  11.108192487814138  -0.488333769021988  60.48467062569729  2.9030493674239697  13.140081134688158  120.000000
5.582906367041199  0.000000  0.000000  0.000000  -31.115597476495644  10.943611919837622  17.187561744376396  53.92918031837243  16.996051923277488  10.517982453334673  -0.2166740539627086  59.399641900511256  2.871866083968941  12.957110886982749  120.000000
5.623071161048689  0.000000  0.000000  0.000000  -30.513183954254586  10.713378871158797  16.461729286267374  53.93273451372307  16.82057775490522  9.863564974383449  0.06576276217696762  58.01684035133819  2.8754622456367516  12.777738065991134  120.000000
5.66323595505618  0.000000  0.000000  0.000000  -29.83339601313237  10.450050950220795  15.593424590550867  53.94912409977383  16.608053675903175  9.159078522429235  0.3590949727832693  56.34528789049139  2.9069774528968013  12.618931660647313  120.000000
5.70340074906367  0.000000  0.000000  0.000000  -29.096601950881116  10.149106187327149  14.592807171157999  53.9792458894854  16.35434259826859  8.421653997958318  0.6670664495823128  54.40323233526048  2.9652029566462597  12.4907271757745  120.000000
5.743565543071161  0.000000  0.000000  0.000000  -28.325297640350115  9.806559635578411  13.473896584574783  54.02185835157272  16.05667571881684  7.670735679414797  0.9964565239613227  52.21738921133096  3.054676267322048  12.396063985756577  120.000000
5.7837303370786515  0.000000  0.000000  0.000000  -27.543066985350066  9.41989099157942  12.254365759751618  54.074168203109025  15.71419671996224  6.927184526636725  1.3558880912704736  49.821088940419784  3.184866517623847  12.331937838691564  120.000000
5.823895131086142  0.000000  0.000000  0.000000  -26.773385741292632  8.98891704063531  10.954940589090294  54.132585230814655  15.32830951247505  6.212087492739514  1.7543223495648412  47.25189784384901  3.3689740045919128  12.291231005046532  120.000000
5.864059925093633  0.000000  0.000000  0.000000  -26.038425069596855  8.516484390408698  9.59850439104805  54.19350157253752  14.902871172555402  5.5454419704005495  2.1993923913616977  44.5490133324653  3.622646705246547  12.264805969427423  120.000000
5.904224719101124  0.000000  0.000000  0.000000  -25.358088738266495  8.008925939337242  8.209029288390704  54.25407492614994  14.444028267636485  4.945056388006758  2.696164988000206  41.750997648512076  3.9626595850066373  12.243339743056621  120.000000
5.944389513108614  0.000000  0.000000  0.000000  -24.748881545008146  7.475856013491757  6.810563240899272  54.31265756182233  13.960087598066726  4.425520823193453  3.2462731741045827  38.894075189992094  4.405758640952333  12.218965055234566  120.000000
5.984554307116105  0.000000  0.000000  0.000000  -24.22312747320884  6.929665333822366  5.426501264940793  54.36918956454314  13.461288643418005  3.997631886528598  3.846577757877771  36.010916388951834  4.968354740971941  12.186325382076667  120.000000
6.024719101123596  0.000000  0.000000  0.000000  -23.788894602153448  6.385030272359829  4.0790058928460935  54.42520961766745  12.959193358064743  3.66806570192361  4.488495769642114  33.13019978243995  5.6661162751888074  12.142936367610934  120.000000
6.064883895131086  0.000000  0.000000  0.000000  -23.449854577118117  5.857941522853836  2.788411769361951  54.48331014196802  12.466331205508371  3.4389905505836778  5.157961755663361  30.27667993176974  6.513450617683388  12.089719867933301  120.000000
6.1050486891385765  0.000000  0.000000  0.000000  -23.20516332429897  5.3643524319764175  1.5729308589959556  54.54680695681413  11.99557542684296  3.3080460678055164  5.835745342306954  27.4715222360968  7.5232186343425385  12.031398579449474  120.000000
6.145213483146067  0.000000  0.000000  0.000000  -23.049661920587663  4.918900084062494  0.44795254050095307  54.619766095379106  11.559607294277061  3.26916697522202  6.498884392647647  24.732654401628885  8.705880744326983  11.976303725803264  120.000000
6.185378277153558  0.000000  0.000000  0.000000  -22.97395885789643  4.53353063981603  -0.5736257710039236  54.707019076709045  11.169671106861081  3.3130602715563016  7.122694535187625  22.07519499395024  10.068595446128365  11.935956732430148  120.000000
6.225543071161049  0.000000  0.000000  0.000000  -22.964859790837558  4.216232514328194  -1.4803492265596712  54.81441178871386  10.834338989643165  3.427568079439427  7.683164764932286  19.51196969748097  11.614174070846286  11.924084133259058  120.000000
6.265707865168539  0.000000  0.000000  0.000000  -23.006529070605822  3.971018092194508  -2.2622668091860527  54.94819351271424  10.559023354929828  3.59911584754095  8.159742890446706  17.05394064011749  13.339740808726232  11.955386116129587  120.000000
